<?xml version="1.0" encoding="UTF-8"?>
<svg width="1500px" height="1500px" viewBox="0 0 42 42" version="1.1" xmlns="http://www.w3.org/2000/svg" xmlns:xlink="http://www.w3.org/1999/xlink">
    <!-- Generator: Sketch 50.2 (55047) - http://www.bohemiancoding.com/sketch -->
    <title>idlei-logotipo-simples-red-RGB</title>
    <desc>Created with Sketch.</desc>
    <defs>
        <linearGradient x1="-1.11022302e-14%" y1="50%" x2="100%" y2="50%" id="linearGradient-1">
            <stop stop-color="#D0021B" offset="0%"></stop>
            <stop stop-color="#BD2E2B" offset="100%"></stop>
        </linearGradient>
    </defs>
    <g id="Page-2" stroke="none" stroke-width="1" fill="none" fill-rule="evenodd">
        <g id="Desktop-HD-Copy-6" transform="translate(-136.000000, -21.000000)">
            <g id="top-bar">
                <g id="idlei-logotipo-simples-red-RGB" transform="translate(136.000000, 21.000000)">
                    <path d="M42.4640937,24.0948854 L31.3276112,4.80845325 L29.3913298,1.45337788 C28.8745329,0.557458575 27.9202838,0.00396497012 26.8860032,0.000212048039 L24.6709278,0.000212048039 L24.6709278,0.110965817 C25.2401106,0.426767963 25.715228,0.888047049 26.0477117,1.44764923 L39.9492193,25.5461417 L37.8487168,25.5461417 L23.9433901,1.45146833 C23.4243992,0.553337189 22.4658157,0.000168290654 21.4285158,0.000212048039 L19.2134404,0.000212048039 L19.2134404,0.110965817 C19.7826232,0.426767963 20.2577406,0.888047049 20.5902243,1.44764923 L34.49937,25.5461417 L32.3988675,25.5461417 L18.4839932,1.45146833 C17.9650561,0.553255576 17.0064624,0 15.9691188,0 C14.9317751,0 13.9731815,0.553255576 13.4542444,1.45146833 L2.317762,20.7379005 L0.38911878,24.0948854 C-0.12970626,24.9935167 -0.12970626,26.1006762 0.38911878,26.9993075 L1.22741024,28.4505638 L1.48901828,28.9164935 L1.58449566,28.8611166 C1.575007,28.207867 1.73979094,27.5638914 2.0618826,26.9954884 L15.976757,2.90463416 L17.0250987,4.72061406 L3.1140434,28.8133779 C2.59521836,29.7120092 2.59521836,30.8191687 3.1140434,31.7178 L3.95233486,33.1690563 L4.22158109,33.6330764 L4.31705848,33.5776995 C4.30674649,32.9254446 4.4701953,32.2821945 4.79062632,31.7139809 L18.7016816,7.62312662 L19.7500233,9.44865426 L5.83896803,33.5337799 C5.3198112,34.4337641 5.32094102,35.5425177 5.84193091,36.441442 C6.3629208,37.3403663 7.32440698,37.8925258 8.36339014,37.8894583 L34.49937,37.8894583 C35.53667,37.889502 36.4952534,37.3363331 37.0142444,36.438202 L37.8525359,34.9869457 L38.1198725,34.5210161 L38.0243952,34.4656392 C37.4642159,34.8007936 36.82489,34.9807275 36.1721339,34.9869457 L8.36339014,34.9869457 L9.41173184,33.1709658 L37.2338424,33.1709658 C38.2711423,33.1710096 39.2297258,32.6178407 39.7487168,31.7197095 L40.5870082,30.2684533 L40.8543449,29.8025236 L40.7588675,29.7471467 C40.1986883,30.0823011 39.5593624,30.2622351 38.9066062,30.2684533 L11.078767,30.2684533 L12.1271087,28.4524734 L39.9492193,28.4524734 C40.9864974,28.4521234 41.9448542,27.8986137 42.4635122,27.0003154 C42.9821702,26.1020171 42.9823918,24.995301 42.4640937,24.096795 L42.4640937,24.0948854 Z M13.8036916,25.5461417 L21.4266062,12.3435286 L29.0495208,25.5461417 L13.8036916,25.5461417 Z" id="Shape" fill="url(#linearGradient-1)" fill-rule="nonzero"></path>
                </g>
            </g>
        </g>
    </g>
</svg>