<?xml version="1.0" encoding="UTF-8"?>
<svg width="270px" height="39px" viewBox="0 0 270 39" version="1.1" xmlns="http://www.w3.org/2000/svg" xmlns:xlink="http://www.w3.org/1999/xlink">
    <!-- Generator: Sketch 50.2 (55047) - http://www.bohemiancoding.com/sketch -->
    <title>idlei-logotipo-simples-red-RGB</title>
    <desc>Created with Sketch.</desc>
    <defs>
        <linearGradient x1="-1.11022302e-14%" y1="50%" x2="100%" y2="50%" id="linearGradient-1">
            <stop stop-color="#D0021B" offset="0%"></stop>
            <stop stop-color="#BD2E2B" offset="100%"></stop>
        </linearGradient>
    </defs>
    <g id="Page-2" stroke="none" stroke-width="1" fill="none" fill-rule="evenodd">
        <g id="Desktop-HD-Copy-6" transform="translate(-136.000000, -21.000000)">
            <g id="top-bar">
                <g id="idlei-logotipo-simples-red-RGB" transform="translate(136.000000, 21.000000)">
                    <polygon id="Shape" fill="#142139" fill-rule="nonzero" points="57.9872362 31.9772864 60.7484422 31.9772864 60.7484422 33.2738693 47.7386935 33.2738693 47.7386935 31.9772864 50.4426131 31.3013065 50.4426131 6.79035176 47.7386935 6.11055276 47.7386935 4.81969849 60.7541709 4.81969849 60.7541709 6.11055276 57.9872362 6.11055276"></polygon>
                    <path d="M63.7063317,33.2719598 L63.7063317,31.9753769 L66.3548744,31.299397 L66.3548744,6.79035176 L63.7063317,6.11055276 L63.7063317,4.81969849 L78.6370854,4.81969849 C88.16,4.81969849 92.9491457,9.60884422 92.9491457,18.1731658 C92.9491457,27.6960804 88.1027136,33.2738693 77.3977889,33.2738693 L63.7063317,33.2719598 Z M77.4550754,31.5247236 C82.920201,31.5247236 84.9481407,28.200201 84.9481407,19.5232161 C84.9481407,10.2256281 83.038593,6.56311558 77.4550754,6.56311558 L73.8994975,6.56311558 L73.8994975,31.5266332 L77.4550754,31.5247236 Z" id="Shape" fill="#142139" fill-rule="nonzero"></path>
                    <polygon id="Shape" fill="#142139" fill-rule="nonzero" points="115.145729 33.2719598 94.5760804 33.2719598 94.5760804 31.9753769 97.2246231 31.299397 97.2246231 6.79035176 94.5760804 6.11055276 94.5760804 4.81969849 107.478894 4.81969849 107.478894 6.11055276 104.774975 6.11055276 104.774975 31.9772864 113.396583 31.9772864 114.861206 26.1741709 117.628141 26.1741709 117.120201 33.7245226 115.655578 33.7245226"></polygon>
                    <path d="M125.438191,22.1507538 C125.518392,26.0863317 127.019296,29.8634171 130.59397,29.8634171 C132.01654,29.9079259 133.413612,29.4787295 134.565829,28.6432161 L135.377387,29.2160804 C134.323317,31.2440201 131.604121,33.6786935 128.157387,33.6786935 C123.410251,33.6786935 119.476583,30.3923618 119.476583,23.699397 C119.476583,16.5194975 124.426131,12.5839196 128.888744,12.5839196 C133.553769,12.5839196 136.717889,14.8142714 135.70392,22.158392 L125.438191,22.1507538 Z M125.478291,20.7357789 L130.670352,20.5333668 C131.197387,16.1108543 130.670352,13.7487437 128.844824,13.7487437 C126.776784,13.7487437 125.648241,17.2527638 125.478291,20.7415075 L125.478291,20.7357789 Z" id="Shape" fill="#142139" fill-rule="nonzero"></path>
                    <path d="M145.448342,32.101407 L147.071457,32.101407 L147.071457,33.2738693 L138.146231,33.2738693 L138.146231,32.101407 L139.769347,31.4693467 L139.769347,15.8110553 L138.146231,14.9765829 L138.146231,13.8041206 L144.638693,12.5877387 L145.450251,12.5877387 L145.448342,32.101407 Z M142.406432,10.758392 C144.233869,10.758392 145.713769,9.75969849 145.713769,7.67638191 C145.713769,5.59306533 144.23196,4.8120603 142.406432,4.8120603 C140.974271,4.8120603 139.099095,5.74964824 139.099095,7.67638191 C139.097186,9.75969849 140.578995,10.758392 142.406432,10.758392 Z" id="Shape" fill="#142139" fill-rule="nonzero"></path>
                    <path d="M42.4640937,24.0948854 L31.3276112,4.80845325 L29.3913298,1.45337788 C28.8745329,0.557458575 27.9202838,0.00396497012 26.8860032,0.000212048039 L24.6709278,0.000212048039 L24.6709278,0.110965817 C25.2401106,0.426767963 25.715228,0.888047049 26.0477117,1.44764923 L39.9492193,25.5461417 L37.8487168,25.5461417 L23.9433901,1.45146833 C23.4243992,0.553337189 22.4658157,0.000168290654 21.4285158,0.000212048039 L19.2134404,0.000212048039 L19.2134404,0.110965817 C19.7826232,0.426767963 20.2577406,0.888047049 20.5902243,1.44764923 L34.49937,25.5461417 L32.3988675,25.5461417 L18.4839932,1.45146833 C17.9650561,0.553255576 17.0064624,0 15.9691188,0 C14.9317751,0 13.9731815,0.553255576 13.4542444,1.45146833 L2.317762,20.7379005 L0.38911878,24.0948854 C-0.12970626,24.9935167 -0.12970626,26.1006762 0.38911878,26.9993075 L1.22741024,28.4505638 L1.48901828,28.9164935 L1.58449566,28.8611166 C1.575007,28.207867 1.73979094,27.5638914 2.0618826,26.9954884 L15.976757,2.90463416 L17.0250987,4.72061406 L3.1140434,28.8133779 C2.59521836,29.7120092 2.59521836,30.8191687 3.1140434,31.7178 L3.95233486,33.1690563 L4.22158109,33.6330764 L4.31705848,33.5776995 C4.30674649,32.9254446 4.4701953,32.2821945 4.79062632,31.7139809 L18.7016816,7.62312662 L19.7500233,9.44865426 L5.83896803,33.5337799 C5.3198112,34.4337641 5.32094102,35.5425177 5.84193091,36.441442 C6.3629208,37.3403663 7.32440698,37.8925258 8.36339014,37.8894583 L34.49937,37.8894583 C35.53667,37.889502 36.4952534,37.3363331 37.0142444,36.438202 L37.8525359,34.9869457 L38.1198725,34.5210161 L38.0243952,34.4656392 C37.4642159,34.8007936 36.82489,34.9807275 36.1721339,34.9869457 L8.36339014,34.9869457 L9.41173184,33.1709658 L37.2338424,33.1709658 C38.2711423,33.1710096 39.2297258,32.6178407 39.7487168,31.7197095 L40.5870082,30.2684533 L40.8543449,29.8025236 L40.7588675,29.7471467 C40.1986883,30.0823011 39.5593624,30.2622351 38.9066062,30.2684533 L11.078767,30.2684533 L12.1271087,28.4524734 L39.9492193,28.4524734 C40.9864974,28.4521234 41.9448542,27.8986137 42.4635122,27.0003154 C42.9821702,26.1020171 42.9823918,24.995301 42.4640937,24.096795 L42.4640937,24.0948854 Z M13.8036916,25.5461417 L21.4266062,12.3435286 L29.0495208,25.5461417 L13.8036916,25.5461417 Z" id="Shape" fill="url(#linearGradient-1)" fill-rule="nonzero"></path>
                    <path d="M161.048,16.2 L163.544,16.2 L169.376,33 L166.688,33 L165.296,28.824 L159.296,28.824 L157.904,33 L155.216,33 L161.048,16.2 Z M162.296,19.536 L160.088,26.328 L164.504,26.328 L162.296,19.536 Z M170.572,26.952 C170.572,23.208 172.396,20.712 176.02,20.712 C177.22,20.712 178.708,21.456 179.26,22.248 L179.26,16.008 L181.756,16.008 L181.756,33 L179.26,33 L179.26,31.608 C178.852,32.304 177.556,33.192 175.972,33.192 C172.396,33.192 170.572,30.816 170.572,26.952 Z M173.212,26.952 C173.212,29.448 174.508,30.984 176.308,30.984 C178.108,30.984 179.404,29.448 179.404,26.952 C179.404,24.456 178.108,22.92 176.308,22.92 C174.508,22.92 173.212,24.456 173.212,26.952 Z M183.432,20.904 L185.976,20.904 L188.616,29.592 L191.256,20.904 L193.8,20.904 L189.792,33 L187.44,33 L183.432,20.904 Z M194.636,26.952 C194.636,23.544 196.844,20.712 200.588,20.712 C204.332,20.712 206.54,23.544 206.54,26.952 C206.54,30.36 204.332,33.192 200.588,33.192 C196.844,33.192 194.636,30.36 194.636,26.952 Z M197.276,26.952 C197.276,28.992 198.404,30.984 200.588,30.984 C202.772,30.984 203.9,28.992 203.9,26.952 C203.9,24.912 202.772,22.92 200.588,22.92 C198.404,22.92 197.276,24.912 197.276,26.952 Z M209.344,24.768 C209.344,22.248 211.216,20.712 213.664,20.712 C214.48,20.712 215.224,20.904 215.872,21.24 L218.104,20.04 L219.112,21.84 L217.48,22.752 C217.816,23.328 218.008,24 218.008,24.768 C218.008,27.312 216.112,28.824 213.664,28.824 C212.944,28.824 212.272,28.68 211.72,28.464 C211.288,28.704 211.072,29.064 211.072,29.52 C211.072,30.168 211.48,30.456 212.32,30.456 L214.984,30.456 C217.36,30.456 218.992,31.632 218.992,33.912 C218.992,36.912 216.4,38.088 213.688,38.088 C210.64,38.088 208.36,36.744 208.36,34.104 C208.36,33.072 208.768,32.232 209.392,31.656 C208.96,31.224 208.696,30.6 208.696,29.76 C208.696,28.68 209.272,27.816 210.16,27.312 C209.632,26.664 209.344,25.8 209.344,24.768 Z M214.456,32.568 L212.512,32.568 C212.08,32.568 211.672,32.544 211.288,32.496 C210.928,32.88 210.76,33.336 210.76,33.96 C210.76,35.16 211.84,35.928 213.688,35.928 C215.416,35.928 216.448,35.28 216.448,34.104 C216.448,32.952 215.632,32.568 214.456,32.568 Z M211.768,24.768 C211.768,25.968 212.56,26.736 213.664,26.736 C214.792,26.736 215.584,25.968 215.584,24.768 C215.584,23.568 214.792,22.8 213.664,22.8 C212.56,22.8 211.768,23.568 211.768,24.768 Z M220.308,29.52 C220.308,27.024 222.444,25.56 225.54,25.56 L227.628,25.56 L227.628,25.032 C227.628,23.52 226.548,22.92 225.276,22.92 C224.292,22.92 223.428,23.448 223.02,24.528 L220.74,24.048 C221.244,22.008 222.972,20.712 225.3,20.712 C228.108,20.712 230.124,21.936 230.124,25.488 L230.124,33 L228.012,33 L227.772,31.416 C226.98,32.52 225.732,33.192 224.028,33.192 C222.012,33.192 220.308,32.04 220.308,29.52 Z M222.948,29.52 C222.948,30.336 223.404,30.984 224.46,30.984 C225.996,30.984 227.628,30 227.628,27.912 L227.628,27.648 L225.444,27.648 C223.908,27.648 222.948,28.368 222.948,29.52 Z M232.904,26.952 C232.904,23.208 234.728,20.712 238.352,20.712 C239.552,20.712 241.04,21.456 241.592,22.248 L241.592,16.008 L244.088,16.008 L244.088,33 L241.592,33 L241.592,31.608 C241.184,32.304 239.888,33.192 238.304,33.192 C234.728,33.192 232.904,30.816 232.904,26.952 Z M235.544,26.952 C235.544,29.448 236.84,30.984 238.64,30.984 C240.44,30.984 241.736,29.448 241.736,26.952 C241.736,24.456 240.44,22.92 238.64,22.92 C236.84,22.92 235.544,24.456 235.544,26.952 Z M246.748,26.952 C246.748,23.544 248.956,20.712 252.7,20.712 C256.444,20.712 258.652,23.544 258.652,26.952 C258.652,30.36 256.444,33.192 252.7,33.192 C248.956,33.192 246.748,30.36 246.748,26.952 Z M249.388,26.952 C249.388,28.992 250.516,30.984 252.7,30.984 C254.884,30.984 256.012,28.992 256.012,26.952 C256.012,24.912 254.884,22.92 252.7,22.92 C250.516,22.92 249.388,24.912 249.388,26.952 Z M265.344,20.712 C266.808,20.712 268.152,21.432 268.92,22.632 L267.336,24.024 C266.736,23.256 265.992,22.92 265.224,22.92 C264.6,22.92 264.024,23.328 264.024,24.12 C264.024,24.984 264.936,25.368 266.184,25.848 C267.816,26.472 269.568,27.192 269.568,29.352 C269.568,31.44 267.96,33.192 265.368,33.192 C262.872,33.192 261.312,31.464 260.688,29.952 L262.8,28.8 C263.28,29.88 264.12,30.984 265.464,30.984 C266.424,30.984 267.096,30.504 267.096,29.4 C267.096,28.344 265.632,28.056 264.216,27.456 C262.824,26.88 261.624,25.992 261.624,24.144 C261.624,22.272 263.16,20.712 265.344,20.712 Z" id="Advogados" fill="#5A6374"></path>
                </g>
            </g>
        </g>
    </g>
</svg>